<svg xmlns="http://www.w3.org/2000/svg" width="1080" height="1620" viewBox="0 0 1080 1620" fill="none">
  <defs>
    <linearGradient id="grad" x1="0" y1="1" x2="1" y2="0">
      <stop offset="0" stop-color="#00E5FF"/>
      <stop offset="0.5" stop-color="#3B82F6"/>
      <stop offset="1" stop-color="#8B5CF6"/>
    </linearGradient>
    <filter id="glow" x="-60%" y="-60%" width="220%" height="220%">
      <feGaussianBlur stdDeviation="2.6" result="b"/>
      <feMerge><feMergeNode in="b"/><feMergeNode in="SourceGraphic"/></feMerge>
    </filter>
    <radialGradient id="bgGlow" cx="50%" cy="50%" r="50%">
      <stop offset="0" stop-color="#00E5FF" stop-opacity="0.30"/>
      <stop offset="1" stop-color="#00E5FF" stop-opacity="0"/>
    </radialGradient>
  </defs>

  <rect width="1080" height="1620" fill="#0A0E1A"/>
  <circle cx="540" cy="380" r="340" fill="url(#bgGlow)"/>

  <text x="540" y="120" text-anchor="middle" font-family="Inter, system-ui, sans-serif" font-weight="500" font-size="28" letter-spacing="4" fill="#7E89B0">BRAND MARK · 品牌标识</text>

  <g transform="translate(360,190) scale(1.5)" filter="url(#glow)">
    <path d="M120 205 C156 193 156 177 120 165 C84 153 84 137 120 125 C156 113 156 97 120 85 C96 73 96 60 108 48" fill="none" stroke="url(#grad)" stroke-width="7" stroke-linecap="round"/>
    <path d="M120 205 C84 193 84 177 120 165 C156 153 156 137 120 125 C84 113 84 97 120 85 C144 73 144 60 132 48" fill="none" stroke="url(#grad)" stroke-width="7" stroke-linecap="round"/>
    <circle cx="120" cy="40" r="16" fill="#FF2D9B" opacity="0.22"/>
    <circle cx="120" cy="40" r="9" fill="#FF2D9B"/>
  </g>

  <text x="540" y="660" text-anchor="middle" font-family="Inter, system-ui, sans-serif" font-weight="700" font-size="96" letter-spacing="-2" fill="#FFFFFF">ARES</text>
  <text x="540" y="724" text-anchor="middle" font-family="Inter, system-ui, 'PingFang SC', 'Microsoft YaHei', sans-serif" font-weight="600" font-size="40" fill="#C9D4F0">弹性自动进化</text>
  <text x="540" y="772" text-anchor="middle" font-family="Inter, system-ui, sans-serif" font-weight="500" font-size="30" letter-spacing="6" fill="#7E89B0">ELASTIC AUTO-EVOLUTION</text>
  <rect x="430" y="826" width="220" height="2" fill="#8C9BD9" opacity="0.45"/>

  <text x="540" y="930" text-anchor="middle" font-family="Inter, system-ui, sans-serif" font-weight="500" font-size="28" letter-spacing="4" fill="#8893B5">COLOR SYSTEM · 配色系统</text>

  <g font-family="Inter, system-ui, sans-serif" font-weight="500" font-size="28" fill="#8893B5" text-anchor="middle">
    <rect x="260" y="980" width="110" height="110" rx="18" fill="#00E5FF"/>
    <text x="315" y="1124">#00E5FF</text>
    <rect x="410" y="980" width="110" height="110" rx="18" fill="#3B82F6"/>
    <text x="465" y="1124">#3B82F6</text>
    <rect x="560" y="980" width="110" height="110" rx="18" fill="#8B5CF6"/>
    <text x="615" y="1124">#8B5CF6</text>
    <rect x="710" y="980" width="110" height="110" rx="18" fill="#FF2D9B"/>
    <text x="765" y="1124">#FF2D9B</text>
  </g>

  <text x="540" y="1480" text-anchor="middle" font-family="Inter, system-ui, sans-serif" font-weight="500" font-size="28" letter-spacing="3" fill="#5A668C">ARES · AGENT EVOLUTION FRAMEWORK</text>
</svg>
